# Blender 3.3.0
# www.blender.org
o crate
v 0.500000 1.000000 -0.500000
v 0.500000 0.000000 -0.500000
v 0.500000 1.000000 0.500000
v 0.500000 0.000000 0.500000
v -0.500000 1.000000 -0.500000
v -0.500000 0.000000 -0.500000
v -0.500000 1.000000 0.500000
v -0.500000 0.000000 0.500000
v -0.500000 0.000000 -0.500000
v -0.500000 0.000000 -0.500000
v -0.500000 0.000000 0.500000
v -0.500000 0.000000 0.500000
v 0.500000 0.000000 -0.500000
v 0.500000 0.000000 -0.500000
v 0.500000 1.000000 -0.500000
v 0.500000 1.000000 -0.500000
v -0.500000 1.000000 0.500000
v -0.500000 1.000000 0.500000
v 0.500000 1.000000 0.500000
v 0.500000 1.000000 0.500000
v 0.500000 0.000000 0.500000
v 0.500000 0.000000 0.500000
v -0.500000 1.000000 -0.500000
v -0.500000 1.000000 -0.500000
v 0.417611 0.917611 -0.500000
v 0.417611 0.082389 -0.500000
v 0.500000 0.917611 0.417611
v 0.500000 0.082389 0.417611
v -0.417611 0.000000 -0.417611
v 0.417611 0.000000 -0.417611
v -0.417611 0.000000 0.417611
v -0.500000 0.917611 0.417611
v -0.500000 0.082389 0.417611
v 0.500000 0.082389 -0.417611
v 0.500000 0.917611 -0.417611
v -0.417611 0.082389 0.500000
v -0.417611 0.917611 0.500000
v 0.417611 1.000000 -0.417611
v 0.417611 1.000000 0.417611
v 0.417611 0.917611 0.500000
v 0.417611 0.082389 0.500000
v 0.417611 0.000000 0.417611
v -0.500000 0.917611 -0.417611
v -0.417611 1.000000 -0.417611
v -0.417611 0.082389 -0.500000
v -0.417611 1.000000 0.417611
v -0.417611 0.917611 -0.500000
v -0.500000 0.082389 -0.417611
v 0.417611 0.917611 -0.475000
v 0.417611 0.082389 -0.475000
v -0.417611 0.917611 -0.475000
v -0.417611 0.082389 0.475000
v -0.417611 0.917611 0.475000
v 0.417611 0.917611 0.475000
v 0.417611 0.082389 0.475000
v -0.417611 0.082389 -0.475000
v 0.475000 0.917611 0.417611
v 0.475000 0.082389 0.417611
v -0.475000 0.917611 0.417611
v -0.475000 0.082389 -0.417611
v -0.475000 0.082389 0.417611
v 0.475000 0.082389 -0.417611
v 0.475000 0.917611 -0.417611
v -0.475000 0.917611 -0.417611
v -0.417611 0.025000 -0.417611
v 0.417611 0.025000 -0.417611
v -0.417611 0.025000 0.417611
v 0.417611 0.975000 0.417611
v -0.417611 0.975000 -0.417611
v 0.417611 0.975000 -0.417611
v 0.417611 0.025000 0.417611
v -0.417611 0.975000 0.417611
v 0.417611 0.917611 -0.500000
v 0.417611 0.082389 -0.500000
v 0.500000 0.917611 0.417611
v 0.500000 0.082389 0.417611
v 0.417611 0.917611 -0.475000
v -0.417611 0.000000 -0.417611
v 0.417611 0.000000 -0.417611
v 0.475000 0.082389 -0.417611
v 0.500000 0.082389 -0.417611
v -0.417611 0.000000 0.417611
v -0.500000 0.917611 0.417611
v -0.500000 0.082389 0.417611
v 0.417611 0.025000 0.417611
v 0.417611 0.000000 0.417611
v 0.500000 0.917611 -0.417611
v -0.417611 0.082389 0.500000
v -0.417611 0.917611 0.500000
v 0.417611 0.082389 -0.475000
v 0.417611 1.000000 -0.417611
v 0.417611 1.000000 0.417611
v 0.417611 0.917611 0.500000
v 0.417611 0.082389 0.500000
v -0.500000 0.917611 -0.417611
v -0.417611 1.000000 -0.417611
v 0.475000 0.917611 -0.417611
v -0.417611 0.082389 -0.500000
v -0.417611 1.000000 0.417611
v -0.417611 0.917611 -0.500000
v -0.500000 0.082389 -0.417611
v -0.417611 0.025000 0.417611
v -0.417611 0.082389 0.475000
v -0.417611 0.917611 0.475000
v 0.417611 0.917611 0.475000
v 0.417611 0.082389 0.475000
v -0.417611 0.082389 -0.475000
v -0.417611 0.917611 -0.475000
v 0.475000 0.917611 0.417611
v 0.475000 0.082389 0.417611
v -0.475000 0.917611 0.417611
v -0.475000 0.082389 0.417611
v -0.475000 0.917611 -0.417611
v -0.475000 0.082389 -0.417611
v -0.417611 0.025000 -0.417611
v 0.417611 0.025000 -0.417611
v 0.417611 0.975000 -0.417611
v 0.417611 0.975000 0.417611
v -0.417611 0.975000 -0.417611
v -0.417611 0.975000 0.417611
v 0.417611 0.917611 -0.500000
v 0.417611 0.917611 -0.500000
v 0.417611 0.082389 -0.500000
v 0.417611 0.082389 -0.500000
v 0.500000 0.917611 0.417611
v 0.500000 0.917611 0.417611
v 0.500000 0.082389 0.417611
v 0.500000 0.082389 0.417611
v 0.417611 0.917611 0.500000
v 0.417611 0.917611 0.500000
v 0.417611 0.917611 0.500000
v 0.417611 0.917611 0.500000
v 0.417611 0.917611 0.500000
v -0.417611 0.000000 -0.417611
v -0.417611 0.000000 -0.417611
v 0.417611 0.000000 -0.417611
v 0.417611 0.000000 -0.417611
v -0.417611 0.917611 0.500000
v -0.417611 0.917611 0.500000
v -0.417611 0.917611 0.500000
v -0.417611 0.917611 0.500000
v -0.417611 0.917611 0.500000
v -0.417611 0.000000 0.417611
v -0.417611 0.000000 0.417611
v -0.500000 0.917611 0.417611
v -0.500000 0.917611 0.417611
v -0.500000 0.082389 0.417611
v -0.500000 0.082389 0.417611
v -0.417611 0.082389 -0.475000
v -0.417611 0.082389 -0.475000
v -0.417611 0.082389 -0.475000
v -0.417611 0.082389 -0.475000
v -0.417611 0.082389 -0.475000
v 0.500000 0.082389 -0.417611
v 0.500000 0.082389 -0.417611
v 0.500000 0.917611 -0.417611
v 0.500000 0.917611 -0.417611
v -0.417611 0.082389 0.500000
v -0.417611 0.082389 0.500000
v 0.417611 0.082389 -0.475000
v 0.417611 0.082389 -0.475000
v 0.417611 0.082389 -0.475000
v 0.417611 0.082389 -0.475000
v 0.417611 0.082389 -0.475000
v 0.417611 1.000000 -0.417611
v 0.417611 1.000000 -0.417611
v 0.417611 1.000000 0.417611
v 0.417611 1.000000 0.417611
v 0.417611 0.082389 0.500000
v 0.417611 0.082389 0.500000
v 0.417611 0.000000 0.417611
v 0.417611 0.000000 0.417611
v -0.500000 0.917611 -0.417611
v -0.500000 0.917611 -0.417611
v -0.417611 1.000000 -0.417611
v -0.417611 1.000000 -0.417611
v 0.475000 0.082389 -0.417611
v 0.475000 0.082389 -0.417611
v 0.475000 0.082389 -0.417611
v 0.475000 0.082389 -0.417611
v 0.475000 0.082389 -0.417611
v -0.417611 0.082389 -0.500000
v -0.417611 0.082389 -0.500000
v -0.417611 1.000000 0.417611
v -0.417611 1.000000 0.417611
v -0.417611 0.917611 -0.500000
v -0.417611 0.917611 -0.500000
v -0.500000 0.082389 -0.417611
v -0.500000 0.082389 -0.417611
v 0.475000 0.082389 0.417611
v 0.475000 0.082389 0.417611
v 0.475000 0.082389 0.417611
v 0.475000 0.082389 0.417611
v 0.475000 0.082389 0.417611
v 0.417611 0.917611 -0.475000
v 0.417611 0.917611 -0.475000
v -0.417611 0.082389 0.475000
v -0.417611 0.082389 0.475000
v -0.417611 0.917611 0.475000
v -0.417611 0.917611 0.475000
v 0.417611 0.917611 0.475000
v 0.417611 0.917611 0.475000
v 0.417611 0.082389 0.475000
v 0.417611 0.082389 0.475000
v -0.417611 0.917611 -0.475000
v -0.417611 0.917611 -0.475000
v -0.417611 0.000000 -0.417611
v -0.417611 0.000000 -0.417611
v -0.417611 0.000000 -0.417611
v 0.417611 0.000000 -0.417611
v 0.417611 0.000000 -0.417611
v 0.417611 0.000000 -0.417611
v 0.417611 0.025000 -0.417611
v 0.417611 0.025000 -0.417611
v 0.417611 0.025000 -0.417611
v 0.417611 0.025000 -0.417611
v 0.417611 0.025000 -0.417611
v -0.417611 0.025000 -0.417611
v -0.417611 0.025000 -0.417611
v -0.417611 0.025000 -0.417611
v -0.417611 0.025000 -0.417611
v -0.417611 0.025000 -0.417611
v 0.417611 1.000000 -0.417611
v 0.417611 1.000000 -0.417611
v 0.417611 1.000000 -0.417611
v -0.417611 0.917611 0.475000
v -0.417611 0.917611 0.475000
v -0.417611 0.917611 0.475000
v 0.475000 0.917611 0.417611
v 0.475000 0.917611 0.417611
v -0.475000 0.917611 0.417611
v -0.475000 0.917611 0.417611
v -0.475000 0.082389 0.417611
v -0.475000 0.082389 0.417611
v 0.475000 0.917611 -0.417611
v 0.475000 0.917611 -0.417611
v -0.475000 0.917611 -0.417611
v -0.475000 0.917611 -0.417611
v -0.475000 0.082389 -0.417611
v -0.475000 0.082389 -0.417611
v -0.417611 0.082389 0.500000
v -0.417611 0.082389 0.500000
v -0.417611 0.082389 0.500000
v 0.417611 0.082389 0.500000
v 0.417611 0.082389 0.500000
v 0.417611 0.082389 0.500000
v -0.475000 0.917611 0.417611
v -0.475000 0.917611 0.417611
v -0.475000 0.917611 0.417611
v -0.475000 0.082389 0.417611
v -0.475000 0.082389 0.417611
v -0.475000 0.082389 0.417611
v -0.500000 0.917611 0.417611
v -0.500000 0.917611 0.417611
v -0.500000 0.917611 0.417611
v -0.500000 0.917611 -0.417611
v -0.500000 0.917611 -0.417611
v -0.500000 0.917611 -0.417611
v -0.417611 0.025000 0.417611
v -0.417611 0.025000 0.417611
v 0.417611 0.975000 -0.417611
v 0.417611 0.975000 -0.417611
v 0.417611 0.975000 0.417611
v 0.417611 0.975000 0.417611
v 0.417611 0.025000 0.417611
v 0.417611 0.025000 0.417611
v -0.417611 0.975000 -0.417611
v -0.417611 0.975000 -0.417611
v -0.417611 0.975000 0.417611
v -0.417611 0.975000 0.417611
v 0.417611 0.917611 0.475000
v 0.417611 0.917611 0.475000
v 0.417611 0.917611 0.475000
v 0.417611 0.082389 0.475000
v 0.417611 0.082389 0.475000
v 0.417611 0.082389 0.475000
v -0.417611 1.000000 -0.417611
v -0.417611 1.000000 -0.417611
v -0.417611 1.000000 -0.417611
v -0.417611 1.000000 0.417611
v -0.417611 1.000000 0.417611
v -0.417611 1.000000 0.417611
v 0.500000 0.917611 0.417611
v 0.500000 0.917611 0.417611
v 0.500000 0.917611 0.417611
v 0.500000 0.082389 0.417611
v 0.500000 0.082389 0.417611
v 0.500000 0.082389 0.417611
v 0.417611 0.917611 -0.500000
v 0.417611 0.917611 -0.500000
v 0.417611 0.917611 -0.500000
v 0.417611 0.082389 -0.500000
v 0.417611 0.082389 -0.500000
v 0.417611 0.082389 -0.500000
v 0.417611 0.917611 -0.475000
v 0.417611 0.917611 -0.475000
v 0.417611 0.917611 -0.475000
v 0.500000 0.082389 -0.417611
v 0.500000 0.082389 -0.417611
v 0.500000 0.082389 -0.417611
v -0.417611 0.000000 0.417611
v -0.417611 0.000000 0.417611
v -0.417611 0.000000 0.417611
v -0.500000 0.082389 0.417611
v -0.500000 0.082389 0.417611
v -0.500000 0.082389 0.417611
v 0.417611 0.025000 0.417611
v 0.417611 0.025000 0.417611
v 0.417611 0.025000 0.417611
v 0.417611 0.000000 0.417611
v 0.417611 0.000000 0.417611
v 0.417611 0.000000 0.417611
v 0.500000 0.917611 -0.417611
v 0.500000 0.917611 -0.417611
v 0.500000 0.917611 -0.417611
v 0.417611 1.000000 0.417611
v 0.417611 1.000000 0.417611
v 0.417611 1.000000 0.417611
v 0.475000 0.917611 -0.417611
v 0.475000 0.917611 -0.417611
v 0.475000 0.917611 -0.417611
v -0.417611 0.082389 -0.500000
v -0.417611 0.082389 -0.500000
v -0.417611 0.082389 -0.500000
v -0.417611 0.917611 -0.500000
v -0.417611 0.917611 -0.500000
v -0.417611 0.917611 -0.500000
v -0.500000 0.082389 -0.417611
v -0.500000 0.082389 -0.417611
v -0.500000 0.082389 -0.417611
v -0.417611 0.025000 0.417611
v -0.417611 0.025000 0.417611
v -0.417611 0.025000 0.417611
v -0.417611 0.082389 0.475000
v -0.417611 0.082389 0.475000
v -0.417611 0.082389 0.475000
v -0.417611 0.917611 -0.475000
v -0.417611 0.917611 -0.475000
v -0.417611 0.917611 -0.475000
v 0.475000 0.917611 0.417611
v 0.475000 0.917611 0.417611
v 0.475000 0.917611 0.417611
v -0.475000 0.917611 -0.417611
v -0.475000 0.917611 -0.417611
v -0.475000 0.917611 -0.417611
v -0.475000 0.082389 -0.417611
v -0.475000 0.082389 -0.417611
v -0.475000 0.082389 -0.417611
v 0.417611 0.975000 -0.417611
v 0.417611 0.975000 -0.417611
v 0.417611 0.975000 -0.417611
v 0.417611 0.975000 0.417611
v 0.417611 0.975000 0.417611
v 0.417611 0.975000 0.417611
v -0.417611 0.975000 -0.417611
v -0.417611 0.975000 -0.417611
v -0.417611 0.975000 -0.417611
v -0.417611 0.975000 0.417611
v -0.417611 0.975000 0.417611
v -0.417611 0.975000 0.417611
vn -0.0000 -0.0000 1.0000
vn -0.0000 -0.0000 -0.0000
vn -0.0000 -0.0000 -1.0000
vn 1.0000 -0.0000 -0.0000
vn -0.0000 -1.0000 -0.0000
vn -1.0000 -0.0000 -0.0000
vn -0.0000 1.0000 -0.0000
vt 0.000000 1.000000
vt 0.000000 0.000000
vt 0.000000 1.000000
vt 0.000000 0.000000
vt 1.000000 1.000000
vt 1.000000 0.000000
vt 1.000000 1.000000
vt 1.000000 0.000000
vt 0.000000 0.000000
vt 1.000000 1.000000
vt 1.000000 0.000000
vt 0.000000 0.000000
vt 0.000000 1.000000
vt 1.000000 0.000000
vt 1.000000 1.000000
vt 0.000000 0.000000
vt 0.000000 1.000000
vt 1.000000 1.000000
vt 1.000000 1.000000
vt 0.000000 1.000000
vt 1.000000 0.000000
vt 0.000000 0.000000
vt 0.000000 1.000000
vt 1.000000 0.000000
vt 0.082389 0.917611
vt 0.082389 0.082389
vt 0.082389 0.917611
vt 0.082389 0.082389
vt 0.917611 0.917611
vt 0.082389 0.917611
vt 0.917611 0.082389
vt 0.917611 0.917611
vt 0.917611 0.082389
vt 0.917611 0.082389
vt 0.917611 0.917611
vt 0.082389 0.082389
vt 0.082389 0.917611
vt 0.082389 0.082389
vt 0.082389 0.917611
vt 0.917611 0.917611
vt 0.917611 0.082389
vt 0.082389 0.082389
vt 0.082389 0.917611
vt 0.917611 0.082389
vt 0.917611 0.082389
vt 0.917611 0.917611
vt 0.917611 0.917611
vt 0.082389 0.082389
vt 0.082389 0.917611
vt 0.082389 0.082389
vt 0.917611 0.917611
vt 0.082389 0.082389
vt 0.082389 0.917611
vt 0.917611 0.917611
vt 0.917611 0.082389
vt 0.917611 0.082389
vt 0.082389 0.917611
vt 0.082389 0.082389
vt 0.917611 0.917611
vt 0.082389 0.082389
vt 0.917611 0.082389
vt 0.917611 0.082389
vt 0.917611 0.917611
vt 0.082389 0.917611
vt 0.917611 0.917611
vt 0.082389 0.917611
vt 0.917611 0.082389
vt 0.082389 0.917611
vt 0.917611 0.082389
vt 0.082389 0.082389
vt 0.082389 0.082389
vt 0.917611 0.917611
vt 0.082389 0.917611
vt 0.917611 0.000000
vt 0.082389 0.917611
vt 0.082389 0.082389
vt 0.082389 0.917611
vt 0.082389 0.000000
vt 0.082389 0.917611
vt 0.975000 0.082389
vt 0.917611 0.082389
vt 0.917611 0.082389
vt 0.000000 0.917611
vt 0.917611 0.082389
vt 0.082389 0.082389
vt 0.082389 0.082389
vt 0.917611 0.917611
vt 0.082389 0.082389
vt 0.082389 0.917611
vt 0.082389 0.082389
vt 0.082389 0.082389
vt 0.082389 0.917611
vt 0.917611 0.917611
vt 0.917611 0.082389
vt 0.000000 0.082389
vt 1.000000 0.082389
vt 0.917611 0.917611
vt 0.917611 0.082389
vt 1.000000 0.917611
vt 0.917611 0.917611
vt 0.082389 0.082389
vt 0.917611 0.082389
vt 0.082389 0.082389
vt 0.082389 0.917611
vt 0.917611 0.975000
vt 0.082389 0.975000
vt 0.082389 0.025000
vt 0.917611 0.025000
vt 0.082389 0.917611
vt 0.082389 0.082389
vt 0.025000 0.917611
vt 0.917611 0.082389
vt 0.025000 0.082389
vt 0.082389 0.082389
vt 0.082389 0.025000
vt 0.082389 0.917611
vt 0.082389 0.082389
vt 0.975000 0.917611
vt 0.917611 0.082389
vt 0.917611 0.917611
vt 0.082389 0.917611
vt 0.082389 0.917611
vt 0.082389 0.082389
vt 0.082389 0.082389
vt 0.082389 0.917611
vt 0.082389 0.917611
vt 0.082389 0.082389
vt 0.082389 0.082389
vt 0.917611 0.917611
vt 0.917611 1.000000
vt 0.917611 1.000000
vt 0.917611 0.917611
vt 0.917611 0.917611
vt 0.917611 0.917611
vt 0.917611 0.917611
vt 0.082389 0.917611
vt 0.082389 0.917611
vt 0.082389 0.917611
vt 0.082389 0.917611
vt 0.082389 0.917611
vt 0.917611 1.000000
vt 0.082389 1.000000
vt 0.917611 0.082389
vt 0.917611 0.082389
vt 0.917611 0.917611
vt 0.917611 0.917611
vt 0.917611 0.082389
vt 0.917611 0.082389
vt 0.917611 0.082389
vt 0.917611 0.082389
vt 0.082389 0.025000
vt 0.917611 0.082389
vt 0.917611 0.082389
vt 0.917611 0.082389
vt 0.917611 0.082389
vt 0.917611 0.917611
vt 0.917611 0.917611
vt 0.082389 0.082389
vt 0.082389 0.082389
vt 0.082389 0.082389
vt 0.082389 0.082389
vt 0.082389 0.082389
vt 0.082389 0.025000
vt 0.917611 0.025000
vt 0.082389 0.082389
vt 0.082389 0.082389
vt 0.082389 0.917611
vt 0.082389 0.917611
vt 0.917611 0.082389
vt 0.917611 0.082389
vt 0.082389 0.082389
vt 0.082389 0.082389
vt 0.082389 0.917611
vt 0.082389 0.917611
vt 0.917611 0.082389
vt 0.917611 0.082389
vt 0.917611 0.082389
vt 0.975000 0.082389
vt 0.917611 0.082389
vt 0.917611 0.082389
vt 0.917611 0.082389
vt 0.917611 0.082389
vt 0.917611 0.082389
vt 0.917611 0.917611
vt 0.917611 0.917611
vt 0.917611 0.917611
vt 0.917611 0.917611
vt 0.082389 0.082389
vt 0.082389 0.082389
vt 0.082389 0.082389
vt 0.082389 0.082389
vt 0.082389 0.082389
vt 0.975000 0.082389
vt 0.975000 0.917611
vt 0.082389 0.917611
vt 0.082389 0.917611
vt 0.082389 0.082389
vt 0.082389 0.082389
vt 0.082389 0.917611
vt 0.082389 0.917611
vt 0.917611 0.917611
vt 0.917611 0.917611
vt 0.917611 0.082389
vt 0.917611 0.082389
vt 0.917611 0.917611
vt 0.917611 0.917611
vt 0.917611 0.917611
vt 0.917611 0.917611
vt 0.000000 0.082389
vt 0.082389 0.917611
vt 0.000000 0.082389
vt 0.917611 0.000000
vt 0.082389 0.917611
vt 0.025000 0.082389
vt 0.917611 0.025000
vt 0.082389 0.917611
vt 0.082389 0.917611
vt 0.917611 0.917611
vt 0.917611 0.917611
vt 0.917611 0.917611
vt 0.917611 0.917611
vt 0.025000 0.082389
vt 0.082389 0.082389
vt 1.000000 0.082389
vt 0.917611 1.000000
vt 0.082389 0.917611
vt 0.917611 0.975000
vt 0.082389 0.975000
vt 0.082389 0.917611
vt 0.082389 0.917611
vt 0.917611 0.917611
vt 0.917611 0.917611
vt 0.917611 0.082389
vt 0.917611 0.082389
vt 0.917611 0.917611
vt 0.917611 0.917611
vt 0.082389 0.917611
vt 0.082389 0.917611
vt 0.082389 0.082389
vt 0.082389 0.082389
vt 0.082389 0.082389
vt 0.082389 1.000000
vt 0.082389 1.000000
vt 0.917611 0.082389
vt 0.082389 1.000000
vt 0.917611 1.000000
vt 0.917611 0.917611
vt 0.917611 0.917611
vt 0.025000 0.917611
vt 0.917611 0.082389
vt 0.025000 0.917611
vt 0.025000 0.082389
vt 0.917611 0.917611
vt 0.917611 0.917611
vt 0.000000 0.917611
vt 0.082389 0.917611
vt 0.000000 0.917611
vt 0.082389 0.917611
vt 0.917611 0.082389
vt 0.917611 0.082389
vt 0.082389 0.082389
vt 0.082389 0.082389
vt 0.082389 0.917611
vt 0.082389 0.917611
vt 0.082389 0.082389
vt 0.082389 0.082389
vt 0.917611 0.082389
vt 0.917611 0.082389
vt 0.917611 0.917611
vt 0.917611 0.917611
vt 0.917611 0.917611
vt 0.917611 0.917611
vt 0.917611 0.975000
vt 0.917611 0.082389
vt 0.917611 0.082389
vt 0.917611 0.975000
vt 0.917611 0.082389
vt 0.917611 0.082389
vt 0.082389 1.000000
vt 0.917611 0.917611
vt 0.917611 0.917611
vt 0.082389 1.000000
vt 0.082389 0.917611
vt 1.000000 0.917611
vt 1.000000 0.917611
vt 0.082389 0.082389
vt 1.000000 0.917611
vt 1.000000 0.082389
vt 0.917611 0.000000
vt 0.917611 0.000000
vt 0.082389 0.917611
vt 0.082389 0.000000
vt 0.082389 0.082389
vt 0.082389 0.082389
vt 0.917611 0.025000
vt 0.917611 0.025000
vt 0.082389 0.917611
vt 1.000000 0.082389
vt 1.000000 0.082389
vt 0.917611 0.082389
vt 0.917611 0.082389
vt 0.082389 0.000000
vt 0.000000 0.917611
vt 0.917611 0.082389
vt 0.000000 0.917611
vt 0.000000 0.082389
vt 0.917611 0.025000
vt 0.025000 0.917611
vt 0.082389 0.082389
vt 0.917611 0.000000
vt 0.000000 0.917611
vt 0.082389 0.082389
vt 1.000000 0.917611
vt 1.000000 0.082389
vt 0.917611 0.917611
vt 1.000000 0.917611
vt 0.082389 0.917611
vt 0.917611 1.000000
vt 0.975000 0.082389
vt 0.917611 0.917611
vt 0.975000 0.917611
vt 0.917611 0.082389
vt 0.082389 0.000000
vt 0.082389 0.000000
vt 0.082389 0.000000
vt 0.917611 0.000000
vt 0.917611 0.917611
vt 0.000000 0.082389
vt 0.000000 0.082389
vt 0.082389 0.082389
vt 0.025000 0.917611
vt 0.917611 0.082389
vt 0.082389 0.025000
vt 0.082389 0.975000
vt 0.082389 0.082389
vt 0.082389 0.975000
vt 0.917611 0.917611
vt 0.917611 0.917611
vt 0.082389 0.025000
vt 0.975000 0.917611
vt 0.975000 0.917611
vt 0.082389 0.917611
vt 0.082389 0.917611
vt 0.025000 0.917611
vt 0.082389 0.917611
vt 0.025000 0.082389
vt 0.025000 0.082389
vt 0.082389 0.082389
vt 0.082389 0.082389
vt 0.917611 0.975000
vt 0.975000 0.082389
vt 0.082389 0.917611
vt 0.917611 0.975000
vt 0.082389 0.917611
vt 0.082389 0.975000
vt 0.975000 0.082389
vt 0.917611 0.082389
vt 0.082389 0.975000
vt 0.975000 0.917611
vt 0.917611 0.917611
s 0
f 184/184/1 317/317/1 280/280/1
f 204/204/1 335/335/1 274/274/1
f 147/147/1 253/253/1 304/304/1
f 261/261/2 352/352/2 349/349/2
f 124/124/1 322/322/1 293/293/1
f 206/206/1 149/149/1 338/338/1
f 237/237/2 247/247/2 343/343/2
f 143/143/2 207/207/2 301/301/2
f 196/196/1 337/337/1 297/297/1
f 235/235/1 177/177/1 320/320/1
f 218/218/2 332/332/2 220/220/2
f 132/132/1 140/140/1 129/129/1
f 121/121/3 2/2/3 123/123/3
f 125/125/4 4/4/4 127/127/4
f 134/134/5 13/13/5 136/136/5
f 144/144/5 10/10/5 134/134/5
f 148/148/6 7/7/6 146/146/6
f 127/127/4 14/14/4 154/154/4
f 154/154/4 15/15/4 156/156/4
f 139/139/1 12/12/1 158/158/1
f 167/167/7 16/16/7 165/165/7
f 169/169/1 19/19/1 133/133/1
f 136/136/5 22/22/5 171/171/5
f 146/146/6 23/23/6 173/173/6
f 165/165/7 24/24/7 175/175/7
f 133/133/1 17/17/1 139/139/1
f 123/123/3 6/6/3 183/183/3
f 185/185/7 20/20/7 167/167/7
f 186/186/3 1/1/3 121/121/3
f 171/171/5 8/8/5 144/144/5
f 173/173/6 9/9/6 188/188/6
f 188/188/6 11/11/6 148/148/6
f 156/156/4 3/3/4 125/125/4
f 183/183/3 5/5/3 186/186/3
f 175/175/7 18/18/7 185/185/7
f 158/158/1 21/21/1 169/169/1
f 269/269/7 262/262/7 267/267/7
f 265/265/5 219/219/5 217/217/5
f 153/153/1 162/162/1 150/150/1
f 181/181/2 192/192/2 179/179/2
f 29/29/1 210/210/1 208/208/1
f 216/216/1 221/221/1 213/213/1
f 199/199/1 203/203/1 201/201/1
f 195/195/3 56/56/3 51/51/3
f 166/166/1 277/277/1 223/223/1
f 200/200/1 271/271/1 226/226/1
f 159/159/1 244/244/1 241/241/1
f 231/231/1 250/250/1 248/248/1
f 238/238/6 234/234/6 59/59/6
f 32/32/2 256/256/2 254/254/2
f 54/54/1 275/275/1 272/272/1
f 44/44/2 281/281/2 278/278/2
f 126/126/1 286/286/1 283/283/1
f 209/209/4 331/331/4 303/303/4
f 290/290/5 339/339/5 325/325/5
f 288/288/3 340/340/3 285/285/3
f 279/279/1 350/350/1 225/225/1
f 328/328/1 344/344/1 257/257/1
f 326/326/4 151/151/4 323/323/4
f 318/318/3 358/358/3 282/282/3
f 246/246/7 336/336/7 243/243/7
f 284/284/5 319/319/5 314/314/5
f 302/302/3 307/307/3 310/310/3
f 313/313/1 178/178/1 298/298/1
f 292/292/6 296/296/6 289/289/6
f 242/242/4 227/227/4 141/141/4
f 324/324/7 164/164/7 74/74/7
f 142/142/5 273/273/5 131/131/5
f 130/130/6 106/106/6 245/245/6
f 299/299/7 194/194/7 287/287/7
f 255/255/3 252/252/3 306/306/3
f 95/95/5 111/111/5 83/83/5
f 305/305/7 347/347/7 329/329/7
f 212/212/1 115/115/1 78/78/1
f 311/311/6 214/214/6 211/211/6
f 224/224/6 118/118/6 316/316/6
f 99/99/4 356/356/4 96/96/4
f 266/266/2 116/116/2 309/309/2
f 240/240/1 345/345/1 348/348/1
f 187/187/1 291/291/1 327/327/1
f 268/268/1 117/117/1 357/357/1
f 28/28/2 300/300/2 76/76/2
f 61/61/2 114/114/2 112/112/2
f 172/172/1 82/82/1 312/312/1
f 68/68/1 360/360/1 354/354/1
f 34/34/1 315/315/1 81/81/1
f 230/230/2 97/97/2 342/342/2
f 43/43/1 330/330/1 258/258/1
f 67/67/1 85/85/1 102/102/1
f 37/37/1 88/88/1 89/89/1
f 48/48/2 84/84/2 101/101/2
f 50/50/1 77/77/1 90/90/1
f 35/35/2 75/75/2 87/87/2
f 72/72/2 119/119/2 120/120/2
f 39/39/2 91/91/2 92/92/2
f 52/52/1 104/104/1 103/103/1
f 41/41/1 93/93/1 94/94/1
f 25/25/1 294/294/1 73/73/1
f 191/191/1 109/109/1 110/110/1
f 45/45/1 100/100/1 98/98/1
f 30/30/2 86/86/2 79/79/2
f 57/57/4 62/62/4 63/63/4
f 184/184/1 168/168/1 317/317/1
f 204/204/1 198/198/1 335/335/1
f 147/147/1 145/145/1 253/253/1
f 261/261/2 263/263/2 352/352/2
f 124/124/1 182/182/1 322/322/1
f 206/206/1 152/152/1 149/149/1
f 237/237/2 232/232/2 247/247/2
f 143/143/2 135/135/2 207/207/2
f 196/196/1 205/205/1 337/337/1
f 235/235/1 180/180/1 177/177/1
f 218/218/2 259/259/2 332/332/2
f 132/132/1 138/138/1 140/140/1
f 121/121/3 1/1/3 2/2/3
f 125/125/4 3/3/4 4/4/4
f 134/134/5 10/10/5 13/13/5
f 144/144/5 8/8/5 10/10/5
f 148/148/6 11/11/6 7/7/6
f 127/127/4 4/4/4 14/14/4
f 154/154/4 14/14/4 15/15/4
f 139/139/1 17/17/1 12/12/1
f 167/167/7 20/20/7 16/16/7
f 169/169/1 21/21/1 19/19/1
f 136/136/5 13/13/5 22/22/5
f 146/146/6 7/7/6 23/23/6
f 165/165/7 16/16/7 24/24/7
f 133/133/1 19/19/1 17/17/1
f 123/123/3 2/2/3 6/6/3
f 185/185/7 18/18/7 20/20/7
f 186/186/3 5/5/3 1/1/3
f 171/171/5 22/22/5 8/8/5
f 173/173/6 23/23/6 9/9/6
f 188/188/6 9/9/6 11/11/6
f 156/156/4 15/15/4 3/3/4
f 183/183/3 6/6/3 5/5/3
f 175/175/7 24/24/7 18/18/7
f 158/158/1 12/12/1 21/21/1
f 269/269/7 264/264/7 262/262/7
f 265/265/5 260/260/5 219/219/5
f 153/153/1 160/160/1 162/162/1
f 181/181/2 190/190/2 192/192/2
f 29/29/1 137/137/1 210/210/1
f 216/216/1 65/65/1 221/221/1
f 199/199/1 197/197/1 203/203/1
f 195/195/3 161/161/3 56/56/3
f 166/166/1 176/176/1 277/277/1
f 200/200/1 202/202/1 271/271/1
f 159/159/1 170/170/1 244/244/1
f 231/231/1 233/233/1 250/250/1
f 238/238/6 239/239/6 234/234/6
f 32/32/2 174/174/2 256/256/2
f 54/54/1 55/55/1 275/275/1
f 44/44/2 46/46/2 281/281/2
f 126/126/1 128/128/1 286/286/1
f 209/209/4 222/222/4 331/331/4
f 290/290/5 295/295/5 339/339/5
f 288/288/3 193/193/3 340/340/3
f 279/279/1 355/355/1 350/350/1
f 328/328/1 346/346/1 344/344/1
f 326/326/4 108/108/4 151/151/4
f 318/318/3 353/353/3 358/358/3
f 246/246/7 276/276/7 336/336/7
f 284/284/5 341/341/5 319/319/5
f 302/302/3 333/333/3 307/307/3
f 313/313/1 321/321/1 178/178/1
f 292/292/6 163/163/6 296/296/6
f 242/242/4 334/334/4 227/227/4
f 324/324/7 107/107/7 164/164/7
f 142/142/5 228/228/5 273/273/5
f 130/130/6 105/105/6 106/106/6
f 299/299/7 80/80/7 194/194/7
f 255/255/3 249/249/3 252/252/3
f 95/95/5 113/113/5 111/111/5
f 305/305/7 251/251/7 347/347/7
f 212/212/1 215/215/1 115/115/1
f 311/311/6 308/308/6 214/214/6
f 224/224/6 351/351/6 118/118/6
f 99/99/4 359/359/4 356/356/4
f 266/266/2 66/66/2 116/116/2
f 240/240/1 64/64/1 345/345/1
f 187/187/1 122/122/1 291/291/1
f 268/268/1 70/70/1 117/117/1
f 28/28/2 155/155/2 300/300/2
f 61/61/2 60/60/2 114/114/2
f 172/172/1 31/31/1 82/82/1
f 68/68/1 270/270/1 360/360/1
f 34/34/1 157/157/1 315/315/1
f 230/230/2 236/236/2 97/97/2
f 43/43/1 189/189/1 330/330/1
f 67/67/1 71/71/1 85/85/1
f 37/37/1 36/36/1 88/88/1
f 48/48/2 33/33/2 84/84/2
f 50/50/1 49/49/1 77/77/1
f 35/35/2 27/27/2 75/75/2
f 72/72/2 69/69/2 119/119/2
f 39/39/2 38/38/2 91/91/2
f 52/52/1 53/53/1 104/104/1
f 41/41/1 40/40/1 93/93/1
f 25/25/1 26/26/1 294/294/1
f 191/191/1 229/229/1 109/109/1
f 45/45/1 47/47/1 100/100/1
f 30/30/2 42/42/2 86/86/2
f 57/57/4 58/58/4 62/62/4
